<svg id="グループ_3943" data-name="グループ 3943" xmlns="http://www.w3.org/2000/svg" xmlns:xlink="http://www.w3.org/1999/xlink" width="100" height="100" viewBox="0 0 100 100">
  <defs>
    <clipPath id="clip-path">
      <rect id="長方形_22850" data-name="長方形 22850" width="100" height="100" fill="#f3f3f3"/>
    </clipPath>
  </defs>
  <g id="マスクグループ_3" data-name="マスクグループ 3" clip-path="url(#clip-path)">
    <g id="エコの手アイコン2" transform="translate(0 1)">
      <g id="グループ_11302" data-name="グループ 11302">
        <path id="パス_3661" data-name="パス 3661" d="M80.965,38.414a7.676,7.676,0,0,0-2.812-1.975,8.9,8.9,0,0,0-3.465-.686,11.232,11.232,0,0,0-6.594,2.226l-.1.067-.033.016-.085.085c-.1.083-.3.234-.569.418-.419.317-1,.719-1.69,1.2C62.869,30,55.893,24.96,45.114,24.517c.19-3.372.768-6.6,2.239-7.278,4.59-2.118,13.061-1.766,18.707-6.707S62.533-2.883,51.234,5.591C45,10.268,42.959,18.277,42.384,24.518c-10.955.467-16.258,7.441-18.213,11.905-.252.05-.487.1-.719.15a22.963,22.963,0,0,0-8.1,3.6,37.667,37.667,0,0,0-5.14,4.585c-.284.3-.569.6-.87.888l-7.2,6.293A6.322,6.322,0,0,0,0,56.677V77.9A4.807,4.807,0,0,0,2.812,82.27a4.863,4.863,0,0,0,2.007.435,4.76,4.76,0,0,0,3.132-1.171l13.424-11.5,21.14,3.833a10.341,10.341,0,0,0,1.759.167,9.918,9.918,0,0,0,5.708-1.808c1.491-1.038,8.52-5.942,15.467-10.813,3.5-2.444,6.964-4.871,9.69-6.812,1.357-.971,2.527-1.808,3.433-2.478.467-.319.853-.6,1.154-.837.317-.234.536-.4.7-.552v.016l.052-.049.033-.018.065-.067a8.89,8.89,0,0,0,2.06-2.8,8.088,8.088,0,0,0,.752-3.313v-.118A8.84,8.84,0,0,0,80.965,38.414ZM77.817,47.6c-2.073,1.725-30.179,21.259-30.179,21.259a5.88,5.88,0,0,1-4.4.987l-22.012-4a2.145,2.145,0,0,0-1.808.486L5.29,78.437a.748.748,0,0,1-.788.118.74.74,0,0,1-.418-.652V56.677a2.119,2.119,0,0,1,.752-1.639l7.3-6.395c2.844-2.846,5.489-6.06,10.844-7.717a28.409,28.409,0,0,1,8.353-1.1H49.746a4.6,4.6,0,0,1,0,9.206H37.094l.049.033a1.633,1.633,0,0,0-.118,3.264l.069-.016H54.268s7.4-4.855,12.27-8.2c1.873-1.272,3.381-2.344,3.949-2.812,2.259-1.692,5.656-2.11,7.464-.118A4.332,4.332,0,0,1,77.817,47.6Z" transform="translate(8.305 7.975)" fill="#50b4c8"/>
        <path id="パス_3662" data-name="パス 3662" d="M33.483,13.581c5.417,1.357,9.887,1.412,12.708,5.3,0,0,1.059-3.884,1.769-5.649,0,0-6.336-12.405-15.18-12C25.009,1.579,25.009,11.464,33.483,13.581Z" transform="translate(3.814 8.102)" fill="#50b4c8"/>
      </g>
    </g>
  </g>
</svg>
