<svg xmlns="http://www.w3.org/2000/svg" xmlns:xlink="http://www.w3.org/1999/xlink" width="100" height="100" viewBox="0 0 100 100">
  <defs>
    <clipPath id="clip-path">
      <rect id="長方形_22850" data-name="長方形 22850" width="100" height="100" transform="translate(649.551 1976.148)" fill="#f3f3f3"/>
    </clipPath>
  </defs>
  <g id="マスクグループ_8" data-name="マスクグループ 8" transform="translate(-649.551 -1976.148)" clip-path="url(#clip-path)">
    <g id="ツールアイコン" transform="translate(660.25 1986.851)">
      <path id="パス_3683" data-name="パス 3683" d="M68.417,38.131l1.559-1.576A5.731,5.731,0,0,1,75.1,35.43c4.757,1.624,10.252-.134,14.063-3.951a21.938,21.938,0,0,0,2.4-3.26.859.859,0,0,0,.142-.717l-.3-1.214a.871.871,0,0,0-.4-.542.855.855,0,0,0-.667-.084l-9.362,2.605a.867.867,0,0,1-.931-.324l-4.3-5.925A.854.854,0,0,1,75.6,21.4l.866-6.294a.859.859,0,0,1,.624-.715l9.887-2.751A.868.868,0,0,0,87.58,10.6l-.391-1.59a.861.861,0,0,0-.393-.537s-.775-.513-1.339-.8a14.921,14.921,0,0,0-21.6,15.476c.492,3.478.261,5.327-1.24,6.915-.137.142-.568.573-1.235,1.228Z" transform="translate(-13.135 -0.289)" fill="#50b4c8"/>
      <path id="パス_3684" data-name="パス 3684" d="M35.143,57.7C24.649,67.866,13.2,78.929,13.2,78.929a2.007,2.007,0,0,0-.036,2.869l4.9,4.9a2.007,2.007,0,0,0,2.866-.033L42.325,65.029Z" transform="translate(-2.692 -11.35)" fill="#50b4c8"/>
      <path id="パス_3685" data-name="パス 3685" d="M84.645,76.241a2.007,2.007,0,0,0-.033-2.866L42.579,32.47l-6.748,6.75L76.874,81.11a2,2,0,0,0,2.869.034Z" transform="translate(-7.668 -5.951)" fill="#50b4c8"/>
      <path id="パス_3686" data-name="パス 3686" d="M39.023,6C33.962,4.03,25.778,3.745,21.038,8.482l-9.192,9.194c-1.945,1.943-.139,3.872-1.576,5.306s-3.732,0-5.025,1.293L.5,29.018a1.724,1.724,0,0,0,0,2.44l6.6,6.6a1.727,1.727,0,0,0,2.442,0l4.74-4.74c1.3-1.293-.144-3.588,1.3-5.023,1.936-1.938,4.049-1.609,5.27-.391l2.44,2.44,2.643.7,6.748-6.748-.777-2.562c-2.152-2.154-2.459-4.646-1.111-5.994,2.087-2.087,5.534-5.1,8.762-6.395C41.618,8.521,41,6.472,39.023,6ZM29.87,16.883c-.01.007.9-1.118.916-1.132Z" transform="translate(0)" fill="#50b4c8"/>
    </g>
  </g>
</svg>
