<svg id="チェックポイントのアイコン_1" data-name="チェックポイントのアイコン 1" xmlns="http://www.w3.org/2000/svg" width="25.22" height="25.221" viewBox="0 0 25.22 25.221">
  <path id="パス_6759" data-name="パス 6759" d="M23.394,19.158q.144-.236.277-.479l.06-.11q.115-.214.222-.433c.026-.054.053-.108.078-.162q.1-.2.185-.411.04-.093.078-.186.084-.206.161-.415c.022-.06.044-.121.065-.182q.077-.221.147-.445c.015-.048.029-.1.043-.146q.074-.249.138-.5c.007-.026.013-.053.019-.079a12.692,12.692,0,0,0,.337-3.813,12.4,12.4,0,0,0-.945-4.021A12.65,12.65,0,0,0,17.419.953,12.4,12.4,0,0,0,13.436.025,12.65,12.65,0,0,0,8.878.567L8.782.6c-.138.044-.274.092-.41.141-.075.027-.15.052-.225.08-.11.042-.219.087-.328.132s-.19.077-.284.119-.2.091-.3.137-.193.091-.288.139-.206.107-.308.162c-.083.045-.167.089-.249.136-.119.068-.236.139-.353.211l-.176.108c-.144.092-.286.187-.426.285L5.362,2.3a12.671,12.671,0,0,0-3.5,3.739l-.01.016q-.15.246-.289.5l-.05.092q-.12.223-.231.451l-.07.145q-.1.211-.191.426-.037.086-.072.173Q.86,8.053.78,8.269q-.031.084-.06.168Q.64,8.664.569,8.9c-.013.044-.026.088-.039.132q-.076.256-.141.515l-.016.065a12.7,12.7,0,0,0-.338,3.823,12.4,12.4,0,0,0,.948,4.027,12.645,12.645,0,0,0,6.8,6.8A12.4,12.4,0,0,0,11.8,25.2a12.6,12.6,0,0,0,11.574-6ZM5.723,12.066,7.7,10.093l3.795,3.8,0,0h0l.005.006L17.93,7.473,19.886,9.43l.015.015-8.4,8.4L5.743,12.085Z" transform="translate(-0.009 0)" fill="#fabe00"/>
</svg>
