<svg data-name="チェックポイントのアイコン 1" xmlns="http://www.w3.org/2000/svg" width="25.22" height="25.221"><path data-name="パス 6759" d="M23.385 19.158q.144-.236.277-.479l.06-.11q.115-.214.222-.433l.078-.162q.1-.2.185-.411l.078-.186q.084-.206.161-.415l.065-.182q.077-.221.147-.445l.043-.146q.074-.249.138-.5l.019-.079a12.692 12.692 0 00.337-3.813 12.4 12.4 0 00-.945-4.021A12.65 12.65 0 0017.41.953a12.4 12.4 0 00-3.983-.928 12.65 12.65 0 00-4.558.542L8.773.6a11.65 11.65 0 00-.41.141c-.075.027-.15.052-.225.08-.11.042-.219.087-.328.132s-.19.077-.284.119l-.3.137a8.577 8.577 0 00-.596.301c-.083.045-.167.089-.249.136-.119.068-.236.139-.353.211l-.176.108c-.144.092-.286.187-.426.285l-.073.05a12.671 12.671 0 00-3.5 3.739l-.01.016q-.15.246-.289.5l-.05.092q-.12.223-.231.451l-.07.145q-.1.211-.191.426-.037.086-.072.173-.089.211-.169.427l-.06.168q-.08.227-.151.463l-.039.132q-.076.256-.141.515l-.016.065a12.7 12.7 0 00-.338 3.823 12.4 12.4 0 00.948 4.027 12.645 12.645 0 006.8 6.8 12.4 12.4 0 004.017.938 12.6 12.6 0 0011.574-6zM5.714 12.066l1.977-1.973 3.795 3.8.005.006 6.43-6.426 1.956 1.957.015.015-8.4 8.4-5.758-5.76z" fill="#fabe00"/></svg>