<svg data-name="チェックポイントのアイコン 1" xmlns="http://www.w3.org/2000/svg" width="19.411" height="19.411"><path data-name="パス 6762" d="M17.998 14.745q.111-.182.213-.369l.046-.085q.089-.165.171-.334l.06-.125q.074-.157.142-.317l.06-.143q.065-.158.124-.319l.05-.14q.06-.17.113-.343a2.37 2.37 0 00.033-.112q.057-.192.106-.387l.015-.061a9.768 9.768 0 00.26-2.934 9.547 9.547 0 00-.727-3.095A9.736 9.736 0 0013.399.734a9.547 9.547 0 00-3.065-.715 9.736 9.736 0 00-3.508.417l-.074.023a11.756 11.756 0 00-.489.17c-.084.032-.172.071-.252.102s-.146.059-.22.091-.152.07-.228.106-.149.07-.222.107-.158.083-.237.125-.128.069-.192.105c-.092.052-.182.107-.272.162l-.135.083c-.111.071-.22.144-.328.219l-.059.041a9.752 9.752 0 00-2.7 2.877l-.007.012q-.116.189-.222.384l-.039.071q-.092.171-.178.347l-.054.112-.141.327-.056.133-.13.331q-.024.064-.046.129-.062.175-.117.353l-.03.1q-.058.2-.109.4l-.012.05a9.773 9.773 0 00-.26 2.942 9.541 9.541 0 00.729 3.1 9.732 9.732 0 005.237 5.231 9.544 9.544 0 003.088.724 9.7 9.7 0 008.908-4.619zm-13.6-5.459l1.52-1.518 2.921 2.923 4.952-4.94 1.506 1.506.012.012-6.464 6.464L4.413 9.3z" fill="#f7701b"/></svg>