<svg xmlns="http://www.w3.org/2000/svg" width="100" height="100"><defs><clipPath id="a"><path data-name="長方形 23012" transform="translate(932.182 2621.008)" fill="#eee" d="M0 0h100v100H0z"/></clipPath></defs><g data-name="マスクグループ 60" transform="translate(-932.182 -2621.008)" clip-path="url(#a)"><path data-name="パス 6734" d="M1029.972 2682.323a4.82 4.82 0 00.675-2.465 4.876 4.876 0 00-4.654-4.868l-10.738-21.651a7.66 7.66 0 10-14.789-3.29l-10.523 10.526h-12.732v-16.836a5.927 5.927 0 00-5.928-5.928h-16.275a5.927 5.927 0 00-5.927 5.928v16.84h-3.3a4.346 4.346 0 00-4.347 4.345v10.122a4.346 4.346 0 004.347 4.347h10.29v2.671h-5.9a12.017 12.017 0 100 24.034h42.35a12.017 12.017 0 000-24.034h-14.148v-2.671h15.169a4.347 4.347 0 004.347-4.347v-8.78l7.849-8.4a7.6 7.6 0 002.372.381 7.721 7.721 0 001.464-.142l11.41 20.792a5 5 0 00-.094.957 4.863 4.863 0 00.8 2.673l-8.709 8.712-3.5-3.5-2.332 2.335 5.774 5.774a10.952 10.952 0 0017.05-13.523zm-72.528-36.154h11.4v13.476h-11.4zm22.587 46.652v-3.788h5.517v3.788h5.925v-3.788h1.048a5.047 5.047 0 010 10.094h-6.766v-2.588h-5.929v2.588h-5.516v-2.588h-5.926v2.588h-5.518v-2.588h-5.923v2.588h-6.77a5.047 5.047 0 110-10.094h1.048v3.788h5.927v-3.788h5.515v3.788h5.924v-3.788h5.519v3.788zm28.078-39.682a2.556 2.556 0 112.557-2.556 2.555 2.555 0 01-2.557 2.556zm17.658 28.636a1.917 1.917 0 111.918-1.917 1.918 1.918 0 01-1.918 1.917z" fill="#50b4c8"/></g></svg>