<svg xmlns="http://www.w3.org/2000/svg" width="14.046" height="21.205" viewBox="0 0 14.046 21.205">
  <g id="グループ_11843" data-name="グループ 11843" transform="translate(-856.149 -2339)">
    <path id="パス_9045" data-name="パス 9045" d="M277.427,333.1v-.008a7.873,7.873,0,0,1-3.325,1.094v4.751l3.325,1.564v-4.9l0-2.5Z" transform="translate(589.819 2019.705)" fill="#8d7c4a"/>
    <path id="パス_9046" data-name="パス 9046" d="M157.62,333.09v0l-.007,0V340.5l3.293-1.548v-4.77a7.857,7.857,0,0,1-2.915-.878Q157.8,333.2,157.62,333.09Z" transform="translate(701.483 2019.705)" fill="#8d7c4a"/>
    <path id="パス_9047" data-name="パス 9047" d="M93.445,0a7.023,7.023,0,1,0,7.023,7.023A7.023,7.023,0,0,0,93.445,0Zm0,10.8a3.782,3.782,0,1,1,3.782-3.782A3.781,3.781,0,0,1,93.445,10.8Z" transform="translate(769.727 2339)" fill="#8d7c4a"/>
  </g>
</svg>
