<svg xmlns="http://www.w3.org/2000/svg" xmlns:xlink="http://www.w3.org/1999/xlink" width="100" height="100" viewBox="0 0 100 100">
  <defs>
    <clipPath id="clip-path">
      <rect id="長方形_23012" data-name="長方形 23012" width="100" height="100" transform="translate(932.182 2621.008)" fill="#eee"/>
    </clipPath>
  </defs>
  <g id="マスクグループ_60" data-name="マスクグループ 60" transform="translate(-932.182 -2621.008)" clip-path="url(#clip-path)">
    <g id="シャベルカーの無料アイコン" transform="translate(938.155 2624.339)">
      <path id="パス_6734" data-name="パス 6734" d="M91.817,57.984a4.82,4.82,0,0,0,.675-2.465,4.876,4.876,0,0,0-4.654-4.868L77.1,29a7.66,7.66,0,1,0-14.789-3.29L51.788,36.236H39.056V19.4a5.927,5.927,0,0,0-5.928-5.928H16.853A5.927,5.927,0,0,0,10.926,19.4v16.84h-3.3a4.346,4.346,0,0,0-4.347,4.345V50.707a4.346,4.346,0,0,0,4.347,4.347H17.916v2.671h-5.9a12.017,12.017,0,1,0,0,24.034H54.366a12.017,12.017,0,0,0,0-24.034H40.218V55.054H55.387a4.347,4.347,0,0,0,4.347-4.347v-8.78l7.849-8.4a7.6,7.6,0,0,0,2.372.381,7.721,7.721,0,0,0,1.464-.142l11.41,20.792a5,5,0,0,0-.094.957,4.863,4.863,0,0,0,.8,2.673L74.826,66.9l-3.5-3.5-2.332,2.335,5.774,5.774a10.952,10.952,0,0,0,17.05-13.523ZM19.289,21.83h11.4V35.306h-11.4ZM41.876,68.482V64.694h5.517v3.788h5.925V64.694h1.048a5.047,5.047,0,0,1,0,10.094H47.6V72.2H41.671v2.588H36.155V72.2H30.229v2.588H24.711V72.2H18.788v2.588h-6.77a5.047,5.047,0,1,1,0-10.094h1.048v3.788h5.927V64.694h5.515v3.788h5.924V64.694h5.519v3.788ZM69.954,28.8a2.556,2.556,0,1,1,2.557-2.556A2.555,2.555,0,0,1,69.954,28.8ZM87.612,57.436a1.917,1.917,0,1,1,1.918-1.917A1.918,1.918,0,0,1,87.612,57.436Z" transform="translate(0 0)" fill="#50b4c8"/>
    </g>
  </g>
</svg>
