<svg xmlns="http://www.w3.org/2000/svg" width="100" height="100"><defs><clipPath id="a"><path data-name="長方形 22850" transform="translate(1213.518 2006.148)" fill="#f3f3f3" d="M0 0h100v100H0z"/></clipPath></defs><g data-name="マスクグループ 5" transform="translate(-1213.518 -2006.148)" clip-path="url(#a)"><path data-name="パス 3667" d="M1299.99 2050.05l-5.117-19.486c-1.048-5.562-6.531-9.578-13.121-9.578h-36.47c-6.59 0-12.073 4.016-13.121 9.578l-5.132 19.5a9.668 9.668 0 00-5.494 8.682v12.29a9.676 9.676 0 009.647 9.647h2.753v6.069a4.561 4.561 0 004.561 4.561h3.82a4.561 4.561 0 004.561-4.561v-6.069h33.279v6.069a4.561 4.561 0 004.561 4.561h3.818a4.561 4.561 0 004.561-4.561v-6.069h2.755a9.676 9.676 0 009.647-9.647v-12.29a9.67 9.67 0 00-5.508-8.696zm-61.6 20.477a5.529 5.529 0 115.529-5.529 5.529 5.529 0 01-5.528 5.529zm32.572 0h-14.891v-7.7h14.892zm-35.715-21.427l4.4-16.725.073-.338c.313-1.847 2.807-3.35 5.56-3.35h36.47c2.753 0 5.247 1.5 5.559 3.35l4.48 17.064h-56.542zm53.4 21.427a5.529 5.529 0 115.529-5.529 5.529 5.529 0 01-5.533 5.529z" fill="#50b4c8"/></g></svg>