<svg data-name="グループ 3943" xmlns="http://www.w3.org/2000/svg" width="100" height="100"><defs><clipPath id="a"><path data-name="長方形 22850" fill="#f3f3f3" d="M0 0h100v100H0z"/></clipPath></defs><g data-name="マスクグループ 3"><g data-name="グループ 11302" fill="#50b4c8" clip-path="url(#a)"><path data-name="パス 3661" d="M89.27 47.389a7.676 7.676 0 00-2.812-1.975 8.9 8.9 0 00-3.465-.686 11.232 11.232 0 00-6.594 2.226l-.1.067-.033.016-.085.085c-.1.083-.3.234-.569.418-.419.317-1 .719-1.69 1.2-2.748-9.765-9.724-14.805-20.503-15.248.19-3.372.768-6.6 2.239-7.278 4.59-2.118 13.061-1.766 18.707-6.707s-3.527-13.415-14.826-4.941c-6.234 4.677-8.275 12.686-8.85 18.927-10.955.467-16.258 7.441-18.213 11.905-.252.05-.487.1-.719.15a22.963 22.963 0 00-8.1 3.6 37.667 37.667 0 00-5.14 4.585c-.284.3-.569.6-.87.888l-7.2 6.293a6.322 6.322 0 00-2.142 4.738v21.223a4.807 4.807 0 002.812 4.37 4.863 4.863 0 002.007.435 4.76 4.76 0 003.132-1.171l13.424-11.5 21.14 3.833a10.341 10.341 0 001.759.167 9.918 9.918 0 005.708-1.808c1.491-1.038 8.52-5.942 15.467-10.813 3.5-2.444 6.964-4.871 9.69-6.812 1.357-.971 2.527-1.808 3.433-2.478.467-.319.853-.6 1.154-.837.317-.234.536-.4.7-.552v.016l.052-.049.033-.018.065-.067a8.89 8.89 0 002.06-2.8 8.088 8.088 0 00.752-3.313v-.118a8.84 8.84 0 00-2.423-5.971zm-3.148 9.186C84.049 58.3 55.943 77.834 55.943 77.834a5.88 5.88 0 01-4.4.987l-22.012-4a2.145 2.145 0 00-1.808.486L13.595 87.412a.748.748 0 01-.788.118.74.74 0 01-.418-.652V65.652a2.119 2.119 0 01.752-1.639l7.3-6.395c2.844-2.846 5.489-6.06 10.844-7.717a28.409 28.409 0 018.353-1.1h18.413a4.603 4.603 0 010 9.206H45.399l.049.033a1.633 1.633 0 00-.118 3.264l.069-.016h17.174s7.4-4.855 12.27-8.2c1.873-1.272 3.381-2.344 3.949-2.812 2.259-1.692 5.656-2.11 7.464-.118a4.332 4.332 0 01-.134 6.417z"/><path data-name="パス 3662" d="M37.297 22.683c5.417 1.357 9.887 1.412 12.708 5.3 0 0 1.059-3.884 1.769-5.649 0 0-6.336-12.405-15.18-12-7.771.347-7.771 10.232.703 12.349z"/></g></g></svg>