<svg xmlns="http://www.w3.org/2000/svg" width="100" height="100"><defs><clipPath id="a"><path data-name="長方形 22850" transform="translate(649.551 1976.148)" fill="#f3f3f3" d="M0 0h100v100H0z"/></clipPath></defs><g data-name="マスクグループ 8" transform="translate(-649.551 -1976.148)" clip-path="url(#a)"><g fill="#50b4c8"><path data-name="パス 3683" d="M715.532 2024.693l1.559-1.576a5.731 5.731 0 015.124-1.125c4.757 1.624 10.252-.134 14.063-3.951a21.938 21.938 0 002.4-3.26.859.859 0 00.142-.717l-.3-1.214a.871.871 0 00-.4-.542.855.855 0 00-.667-.084l-9.362 2.605a.867.867 0 01-.931-.324l-4.3-5.925a.854.854 0 01-.145-.618l.866-6.294a.859.859 0 01.624-.715l9.887-2.751a.868.868 0 00.603-1.04l-.391-1.59a.861.861 0 00-.393-.537s-.775-.513-1.339-.8a14.921 14.921 0 00-21.6 15.476c.492 3.478.261 5.327-1.24 6.915a91.6 91.6 0 01-1.235 1.228z"/><path data-name="パス 3684" d="M692.701 2033.201c-10.494 10.166-21.943 21.229-21.943 21.229a2.007 2.007 0 00-.036 2.869l4.9 4.9a2.007 2.007 0 002.866-.033l21.395-21.636z"/><path data-name="パス 3685" d="M737.227 2057.141a2.007 2.007 0 00-.033-2.866l-42.033-40.905-6.748 6.75 41.043 41.89a2 2 0 002.869.034z"/><path data-name="パス 3686" d="M699.273 1992.851c-5.061-1.97-13.245-2.255-17.985 2.482l-9.192 9.194c-1.945 1.943-.139 3.872-1.576 5.306s-3.732 0-5.025 1.293l-4.745 4.743a1.724 1.724 0 000 2.44l6.6 6.6a1.727 1.727 0 002.442 0l4.74-4.74c1.3-1.293-.144-3.588 1.3-5.023 1.936-1.938 4.049-1.609 5.27-.391l2.44 2.44 2.643.7 6.748-6.748-.777-2.562c-2.152-2.154-2.459-4.646-1.111-5.994 2.087-2.087 5.534-5.1 8.762-6.395 2.061-.824 1.443-2.873-.534-3.345zm-9.153 10.883c-.01.007.9-1.118.916-1.132z"/></g></g></svg>