<svg xmlns="http://www.w3.org/2000/svg" width="100" height="100"><defs><clipPath id="a"><path data-name="長方形 22850" transform="translate(0 942.5)" fill="#50b4c8" d="M0 0h100v100H0z"/></clipPath></defs><g data-name="グループ 3939"><g data-name="マスクグループ 4" clip-path="url(#a)" transform="translate(0 -942.5)"><g data-name="グループ 11304" fill="#50b4c8"><path data-name="パス 3663" d="M36.018 966.993a3.856 3.856 0 003.856-3.857v-6.068a3.857 3.857 0 00-7.713 0v6.067a3.857 3.857 0 003.857 3.858z"/><path data-name="パス 3664" d="M64.453 966.993a3.857 3.857 0 003.857-3.857v-6.068a3.857 3.857 0 00-7.713 0v6.067a3.857 3.857 0 003.856 3.858z"/><path data-name="パス 3665" d="M77.816 958.709h-6.118v4.427a7.245 7.245 0 11-14.489 0v-4.427H43.262v4.427a7.245 7.245 0 11-14.489 0v-4.427h-6.589a10.831 10.831 0 00-10.831 10.83v51.418a10.831 10.831 0 0010.831 10.831h55.632a10.831 10.831 0 0010.83-10.831v-51.418a10.831 10.831 0 00-10.83-10.83zm5.561 62.248a5.567 5.567 0 01-5.562 5.558H22.184a5.567 5.567 0 01-5.561-5.561v-44.57h66.753z"/><path data-name="長方形 22869" d="M37.558 1011.915h9.759v9.759h-9.759z"/><path data-name="長方形 22870" d="M37.558 996.791h9.759v9.759h-9.759z"/><path data-name="長方形 22871" d="M22.434 1011.915h9.758v9.759h-9.758z"/><path data-name="長方形 22872" d="M22.434 996.791h9.758v9.759h-9.758z"/><path data-name="長方形 22873" d="M67.806 981.669h9.758v9.758h-9.758z"/><path data-name="長方形 22874" d="M52.682 981.669h9.759v9.758h-9.759z"/><path data-name="パス 3666" d="M64.432 998.211l-2.903-2.253-5.286 6.8-3.138-2.51-2.3 2.868 6.047 4.839z"/><path data-name="長方形 22875" d="M67.806 996.791h9.758v9.759h-9.758z"/><path data-name="長方形 22876" d="M52.682 1011.915h9.759v9.759h-9.759z"/><path data-name="長方形 22877" d="M37.558 981.669h9.759v9.758h-9.759z"/></g></g></g></svg>