<svg xmlns="http://www.w3.org/2000/svg" xmlns:xlink="http://www.w3.org/1999/xlink" width="100" height="100" viewBox="0 0 100 100">
  <defs>
    <clipPath id="clip-path">
      <rect id="長方形_23013" data-name="長方形 23013" width="100" height="100" transform="translate(0 2618.712)" fill="#eee"/>
    </clipPath>
  </defs>
  <g id="マスクグループ_63" data-name="マスクグループ 63" transform="translate(0 -2618.712)" clip-path="url(#clip-path)">
    <g id="工事用の安全ヘルメットの無料アイコン素材_5" data-name="工事用の安全ヘルメットの無料アイコン素材 5" transform="translate(6.303 2639.351)">
      <path id="パス_6739" data-name="パス 6739" d="M18.865,41.379l-1.113,2.146-.008.015h0l-.013.025a50.561,50.561,0,0,0,6.828,2.892l-.164-2.678A46.66,46.66,0,0,1,18.865,41.379Z" transform="translate(-2.236 -17.554)" fill="#50b4c8"/>
      <path id="パス_6740" data-name="パス 6740" d="M54.723,48.025h0V48c-.157.016-.313.033-.469.041a69.665,69.665,0,0,1-10.147,0c-.152-.007-.3-.023-.448-.038h-.009l-.027,0-.139,2.464c.147.017.3.033.443.041,1.75.123,3.525.189,5.258.189s3.492-.066,5.25-.189c.14-.008.288-.025.427-.033l-.133-2.35Z" transform="translate(-5.482 -18.388)" fill="#50b4c8"/>
      <path id="パス_6741" data-name="パス 6741" d="M80.149,41.379a46.277,46.277,0,0,1-5.538,2.407l-.172,2.678a49.33,49.33,0,0,0,6.682-2.824c.044-.022.093-.041.137-.063h0l.025-.011Z" transform="translate(-9.385 -17.554)" fill="#50b4c8"/>
      <path id="パス_6742" data-name="パス 6742" d="M85.9,58.3c-2.169-2.407-3.968-4.4-5.225-5.783l-.123-.131c-.03-.429-.1-.855-.147-1.284q-.048-.467-.107-.935-.178-1.425-.455-2.837c-.029-.146-.058-.293-.088-.439A44.276,44.276,0,0,0,72.9,30.816c-.081-.118-.163-.235-.245-.353q-.834-1.19-1.745-2.318-.293-.364-.595-.721c-.281-.333-.541-.685-.833-1.009A41.176,41.176,0,0,0,66.3,23.245c-.509-.452-1.035-.9-1.569-1.323a37.431,37.431,0,0,0-4.248-2.958,35.043,35.043,0,0,0-6.2-2.95,30.516,30.516,0,0,0-21.164-.008,35.106,35.106,0,0,0-6.2,2.958h-.008a37.479,37.479,0,0,0-4.248,2.949c-.534.427-1.051.871-1.569,1.332A41.306,41.306,0,0,0,17.9,26.416c-.291.323-.549.674-.83,1.006q-.3.36-.6.726-.911,1.128-1.742,2.315c-.083.118-.165.237-.247.356a44.279,44.279,0,0,0-6.835,16c-.045.212-.087.425-.128.637-.163.847-.3,1.694-.412,2.547-.059.449-.11.9-.155,1.348-.033.347-.094.693-.119,1.041l-.123.131C5.464,53.9,3.657,55.895,1.5,58.3A5.773,5.773,0,0,0,.313,64.045a5.6,5.6,0,0,0,.739,1.446A5.724,5.724,0,0,0,2.26,66.723l.444.32.394.181c.066.033.123.058.189.091a5.69,5.69,0,0,0,.994.345,50.787,50.787,0,0,0,10.065,2.062l1.618,2.662a9.331,9.331,0,0,0,7.92,4.453H63.5a9.334,9.334,0,0,0,7.928-4.453l1.618-2.662a50.771,50.771,0,0,0,10.065-2.062,5.685,5.685,0,0,0,.994-.345,2.692,2.692,0,0,0,.263-.131,5.031,5.031,0,0,0,.756-.46,5.544,5.544,0,0,0,1.207-1.233,5.625,5.625,0,0,0,.748-1.446A5.775,5.775,0,0,0,85.9,58.3ZM63.5,71.907H23.884a4.349,4.349,0,0,1-3.713-2.087l-2.86-4.708c-8.922-.986-11.691-2.218-11.7-2.218a.822.822,0,0,1-.288-.066.4.4,0,0,0-.057-.033c-.025-.017-.049-.017-.066-.033a.8.8,0,0,1-.139-.147.47.47,0,0,1-.09-.181A.842.842,0,0,1,5.16,61.6c.509-.567,1-1.118,1.47-1.636,3.345,1.028,13.351,3.246,37.063,3.246,23.588,0,33.521-2.161,37.046-3.27.477.525.97,1.084,1.487,1.659a.831.831,0,0,1,.2.838.91.91,0,0,1-.091.181.616.616,0,0,1-.147.147c-.017.017-.041.017-.058.033a.205.205,0,0,0-.057.033.822.822,0,0,1-.3.066,15.68,15.68,0,0,1-2.5.739,77.533,77.533,0,0,1-9.193,1.478L67.215,69.82A4.338,4.338,0,0,1,63.5,71.907ZM78.269,57.221c-4.165,1.011-14.188,2.7-34.576,2.7-17.816,0-27.716-1.289-32.706-2.289l-.058-.011-.008,0c-.7-.144-1.295-.283-1.807-.413.464-.5.88-.97,1.255-1.377.542-.6.978-1.084,1.306-1.438a38.725,38.725,0,0,1,9.827-24.6c.5-.558,1.019-1.1,1.544-1.618q.752-.752,1.553-1.454l.92,14.723.165,2.613v.008l.139,2.26a4.437,4.437,0,1,0,8.873,0l.025-.46.14-2.473,1.331-23.227c.55-.165,1.117-.321,1.676-.444s1.109-.238,1.668-.328a25.2,25.2,0,0,1,8.315,0c.559.09,1.117.2,1.668.328s1.117.271,1.668.436L52.517,43.39l.14,2.473.024.46a4.437,4.437,0,1,0,8.873,0l.14-2.26.164-2.612.576-9.146.368-5.579c.521.464,1.042.943,1.538,1.447q.8.776,1.553,1.627a38.675,38.675,0,0,1,9.826,24.59c.32.353.764.838,1.306,1.438.315.351.674.749,1.061,1.173C78.147,57.075,78.205,57.142,78.269,57.221Z" transform="translate(-0.001 -14.117)" fill="#50b4c8"/>
    </g>
  </g>
</svg>
