<svg id="チェックポイントのアイコン_1" data-name="チェックポイントのアイコン 1" xmlns="http://www.w3.org/2000/svg" width="19.411" height="19.411" viewBox="0 0 19.411 19.411">
  <path id="パス_6762" data-name="パス 6762" d="M18.007,14.745q.111-.182.213-.369l.046-.085q.089-.165.171-.334l.06-.125q.074-.157.142-.317.031-.072.06-.143.065-.158.124-.319c.017-.047.034-.093.05-.14q.06-.17.113-.343c.012-.037.023-.075.033-.112q.057-.192.106-.387l.015-.061A9.768,9.768,0,0,0,19.4,9.076a9.547,9.547,0,0,0-.727-3.095A9.736,9.736,0,0,0,13.408.734,9.547,9.547,0,0,0,10.343.019,9.736,9.736,0,0,0,6.835.436L6.761.459C6.655.493,6.55.53,6.445.567c-.058.02-.116.04-.173.062C6.188.661,6.1.7,6.02.731S5.874.79,5.8.822s-.152.07-.228.106-.149.07-.222.107-.158.083-.237.125-.128.069-.192.105c-.092.052-.182.107-.272.162l-.135.083c-.111.071-.22.144-.328.219l-.059.041a9.752,9.752,0,0,0-2.7,2.877l-.007.012q-.116.189-.222.384l-.039.071q-.092.171-.178.347l-.054.112Q.857,5.735.786,5.9q-.028.066-.056.133Q.664,6.2.6,6.364q-.024.064-.046.129-.062.175-.117.353c-.01.034-.02.068-.03.1q-.058.2-.109.4l-.012.05a9.773,9.773,0,0,0-.26,2.942,9.541,9.541,0,0,0,.729,3.1,9.732,9.732,0,0,0,5.237,5.231,9.544,9.544,0,0,0,3.088.724,9.7,9.7,0,0,0,8.908-4.619ZM4.407,9.286l1.52-1.518,2.921,2.923h0l0,0L13.8,5.751l1.506,1.506.012.012L8.854,13.733,4.422,9.3Z" transform="translate(-0.009 0)" fill="#f7701b"/>
</svg>
