<svg xmlns="http://www.w3.org/2000/svg" width="26.868" height="23.561" viewBox="0 0 26.868 23.561">
  <g id="記事アイコン1" transform="translate(0 -31.506)">
    <path id="パス_3651" data-name="パス 3651" d="M93.539,129.954h9.523l4.182-4.182.039-.039v-.687H93.539Z" transform="translate(-88.63 -88.63)" fill="#f77624"/>
    <path id="パス_3652" data-name="パス 3652" d="M21.106,52.613H2.454V33.96H21.106v.692l2.454-1.831V31.506H0V55.067H23.561V45.029l-2.454,2.454Z" transform="translate(0 0)" fill="#f77624"/>
    <path id="パス_3653" data-name="パス 3653" d="M100.666,274.708H93.539v1.473h6.322A13.134,13.134,0,0,1,100.666,274.708Z" transform="translate(-88.63 -230.44)" fill="#f77624"/>
    <path id="パス_3654" data-name="パス 3654" d="M93.539,349.539v1.473H99.36a3.527,3.527,0,0,1-.191-1.473Z" transform="translate(-88.63 -301.344)" fill="#f77624"/>
    <path id="パス_3655" data-name="パス 3655" d="M249.618,208.375c-.813.813-2.918,4.238-2.1,5.052s4.238-1.291,5.052-2.1l3.346-3.346-2.947-2.947Z" transform="translate(-234.351 -164.417)" fill="#f77624"/>
    <path id="パス_3656" data-name="パス 3656" d="M374.512,104.493a2.084,2.084,0,0,0-2.947,0l-4.024,4.024,2.947,2.947,4.024-4.024A2.084,2.084,0,0,0,374.512,104.493Zm-5.259,4.558-.506-.505,2.817-2.817.5.5Z" transform="translate(-348.255 -68.578)" fill="#f77624"/>
  </g>
</svg>
