<svg xmlns="http://www.w3.org/2000/svg" width="14.432" height="18.823" viewBox="0 0 14.432 18.823">
  <g id="電話の受話器のアイコン素材" transform="translate(0.001 0)">
    <path id="パス_13" data-name="パス 13" d="M61,.8c-1.293.839-1.547,3.461-1.059,5.6a19.3,19.3,0,0,0,2.552,6,20.045,20.045,0,0,0,4.436,4.777c1.752,1.317,4.25,2.155,5.543,1.316a6.55,6.55,0,0,0,1.67-1.791l-.695-1.071-1.911-2.946c-.142-.219-1.032-.019-1.485.237a4.307,4.307,0,0,0-1.172,1.273c-.418.242-.769,0-1.5-.336a8.915,8.915,0,0,1-2.717-2.866,8.915,8.915,0,0,1-1.508-3.649c-.009-.806-.086-1.224.305-1.507A4.307,4.307,0,0,0,65.1,5.279c.418-.309.964-1.04.822-1.259L64.013,1.074,63.319,0A6.55,6.55,0,0,0,61,.8Z" transform="translate(-59.713 0)"/>
  </g>
</svg>
