<svg xmlns="http://www.w3.org/2000/svg" xmlns:xlink="http://www.w3.org/1999/xlink" width="100" height="100" viewBox="0 0 100 100">
  <defs>
    <clipPath id="clip-path">
      <rect id="長方形_22850" data-name="長方形 22850" width="100" height="100" transform="translate(367.181 2621.008)" fill="#eee"/>
    </clipPath>
  </defs>
  <g id="マスクグループ_58" data-name="マスクグループ 58" transform="translate(-367.181 -2621.008)" clip-path="url(#clip-path)">
    <g id="アンケートシートの無料アイコン" transform="translate(380.963 2628.531)">
      <path id="パス_6722" data-name="パス 6722" d="M29.637,18.273H51.043a4.588,4.588,0,0,0,4.588-4.59v-4.6A4.588,4.588,0,0,0,51.043,4.5h-5.8a4.922,4.922,0,0,0-9.807,0h-5.8a4.59,4.59,0,0,0-4.591,4.59v4.6A4.59,4.59,0,0,0,29.637,18.273ZM40.34,2.7a2.249,2.249,0,1,1-2.251,2.248A2.248,2.248,0,0,1,40.34,2.7Z" transform="translate(-3.027)" fill="#50b4c8"/>
      <path id="パス_6723" data-name="パス 6723" d="M93.768,31.445a.293.293,0,0,1,.032.039.327.327,0,0,1,.032.025Z" transform="translate(-13.368 -4.731)" fill="#50b4c8"/>
      <path id="パス_6724" data-name="パス 6724" d="M92.264,31.3a3.786,3.786,0,0,0-5.329.025L83.562,34.7l5.3,5.3,3.373-3.373A3.789,3.789,0,0,0,92.264,31.3Z" transform="translate(-11.832 -4.546)" fill="#50b4c8"/>
      <path id="パス_6725" data-name="パス 6725" d="M53.552,75.257l11.5-11.495L58.182,56.9l-11.5,11.5a1.772,1.772,0,0,0,0,2.5l4.364,4.363A1.768,1.768,0,0,0,53.552,75.257Z" transform="translate(-6.206 -8.561)" fill="#50b4c8"/>
      <path id="パス_6726" data-name="パス 6726" d="M42.32,80.393l-1.592,1.595.917.919,1.595-1.593,6.834-2.238-5.516-5.515Z" transform="translate(-5.387 -11.069)" fill="#50b4c8"/>
      <path id="パス_6727" data-name="パス 6727" d="M73.194,18.385V33.862l5.4-5.4V18.7a7.651,7.651,0,0,0-7.651-7.65H64.2v4.294a7.3,7.3,0,0,1-.158,1.509h7.624A1.531,1.531,0,0,1,73.194,18.385Z" transform="translate(-8.894 -1.663)" fill="#50b4c8"/>
      <path id="パス_6728" data-name="パス 6728" d="M64.3,77.53a1.53,1.53,0,0,1-1.531,1.53H11.854a1.53,1.53,0,0,1-1.528-1.53V18.385a1.53,1.53,0,0,1,1.528-1.53h7.627a7.3,7.3,0,0,1-.161-1.509V11.052H12.576A7.648,7.648,0,0,0,4.928,18.7V78.967a7.648,7.648,0,0,0,7.648,7.649h49.47A7.651,7.651,0,0,0,69.7,78.967V49.824l-5.4,5.4V77.53Z" transform="translate(0 -1.663)" fill="#50b4c8"/>
      <path id="パス_6729" data-name="パス 6729" d="M61.752,52.488l6.865,6.864L85.366,42.6,78.5,35.74ZM80.137,40.967a1.516,1.516,0,0,1,0,2.145l-8.149,8.15a1.517,1.517,0,1,1-2.145-2.145l8.152-8.15A1.515,1.515,0,0,1,80.137,40.967Z" transform="translate(-8.55 -5.378)" fill="#50b4c8"/>
      <path id="パス_6730" data-name="パス 6730" d="M18.181,34.937,23.6,40.359l1.971-1.971,5.421-5.421L29.021,31,23.6,36.416l-3.447-3.45Z" transform="translate(-1.994 -4.664)" fill="#50b4c8"/>
      <path id="パス_6731" data-name="パス 6731" d="M29.021,47.674,23.6,53.094l-3.447-3.45-1.972,1.971L23.6,57.037l1.971-1.971,5.421-5.421Z" transform="translate(-1.994 -7.173)" fill="#50b4c8"/>
      <path id="パス_6732" data-name="パス 6732" d="M20.152,66.322l-1.972,1.971L23.6,73.714l1.971-1.971,5.421-5.421-1.971-1.97L23.6,69.772Z" transform="translate(-1.994 -9.683)" fill="#50b4c8"/>
    </g>
  </g>
</svg>
