<svg xmlns="http://www.w3.org/2000/svg" width="26.868" height="23.561"><g fill="#f77624"><path data-name="パス 3651" d="M4.909 9.818h9.523l4.182-4.182.039-.039V4.91H4.909z"/><path data-name="パス 3652" d="M21.106 21.107H2.454V2.454h18.652v.692l2.454-1.831V0H0v23.561h23.561V13.523l-2.454 2.454z"/><path data-name="パス 3653" d="M12.036 12.762H4.909v1.473h6.322a13.134 13.134 0 01.805-1.473z"/><path data-name="パス 3654" d="M4.909 16.689v1.473h5.821a3.527 3.527 0 01-.191-1.473z"/><path data-name="パス 3655" d="M15.267 12.452c-.813.813-2.918 4.238-2.1 5.052s4.238-1.291 5.052-2.1l3.346-3.346-2.947-2.947z"/><path data-name="パス 3656" d="M26.257 4.409a2.084 2.084 0 00-2.947 0l-4.024 4.024 2.947 2.947 4.024-4.024a2.084 2.084 0 000-2.947zm-5.259 4.558l-.506-.505 2.817-2.817.5.5z"/></g></svg>