<svg xmlns="http://www.w3.org/2000/svg" width="14.432" height="18.823"><path data-name="パス 13" d="M1.288.8C-.005 1.639-.259 4.261.229 6.4a19.3 19.3 0 002.552 6 20.045 20.045 0 004.436 4.777c1.752 1.317 4.25 2.155 5.543 1.316a6.55 6.55 0 001.67-1.791l-.695-1.071-1.911-2.946c-.142-.219-1.032-.019-1.485.237a4.307 4.307 0 00-1.172 1.273c-.418.242-.769 0-1.5-.336a8.915 8.915 0 01-2.717-2.866 8.915 8.915 0 01-1.508-3.649c-.009-.806-.086-1.224.305-1.507a4.307 4.307 0 001.641-.558c.418-.309.964-1.04.822-1.259L4.301 1.074 3.607 0a6.55 6.55 0 00-2.319.8z"/></svg>