<svg xmlns="http://www.w3.org/2000/svg" width="100" height="100"><defs><clipPath id="a"><path data-name="長方形 23013" transform="translate(0 2618.712)" fill="#eee" d="M0 0h100v100H0z"/></clipPath></defs><g data-name="マスクグループ 63" transform="translate(0 -2618.712)" clip-path="url(#a)"><g data-name="工事用の安全ヘルメットの無料アイコン素材 5" fill="#50b4c8"><path data-name="パス 6739" d="M22.932 2663.176l-1.113 2.146-.008.015-.013.025a50.561 50.561 0 006.828 2.892l-.164-2.678a46.66 46.66 0 01-5.53-2.4z"/><path data-name="パス 6740" d="M55.544 2668.988v-.025c-.157.016-.313.033-.469.041a69.665 69.665 0 01-10.147 0c-.152-.007-.3-.023-.448-.038h-.036l-.139 2.464c.147.017.3.033.443.041 1.75.123 3.525.189 5.258.189s3.492-.066 5.25-.189c.14-.008.288-.025.427-.033l-.133-2.35z"/><path data-name="パス 6741" d="M77.067 2663.176a46.277 46.277 0 01-5.538 2.407l-.172 2.678a49.33 49.33 0 006.682-2.824c.044-.022.093-.041.137-.063l.025-.011z"/><path data-name="パス 6742" d="M92.202 2683.534a2032.15 2032.15 0 00-5.225-5.783l-.123-.131c-.03-.429-.1-.855-.147-1.284q-.048-.467-.107-.935-.178-1.425-.455-2.837l-.088-.439a44.276 44.276 0 00-6.855-16.075l-.245-.353q-.834-1.19-1.745-2.318-.293-.364-.595-.721c-.281-.333-.541-.685-.833-1.009a41.176 41.176 0 00-3.182-3.17 36.68 36.68 0 00-1.569-1.323 37.431 37.431 0 00-4.248-2.958 35.043 35.043 0 00-6.2-2.95 30.516 30.516 0 00-21.164-.008 35.106 35.106 0 00-6.2 2.958h-.008a37.479 37.479 0 00-4.248 2.949c-.534.427-1.051.871-1.569 1.332a41.306 41.306 0 00-3.194 3.171c-.291.323-.549.674-.83 1.006q-.3.36-.6.726-.911 1.128-1.742 2.315a44.97 44.97 0 00-.247.356 44.279 44.279 0 00-6.835 16 43.262 43.262 0 00-.695 4.532c-.033.347-.094.693-.119 1.041l-.123.131c-1.245 1.377-3.052 3.372-5.209 5.777a5.773 5.773 0 00-1.187 5.745 5.6 5.6 0 00.739 1.446 5.724 5.724 0 001.208 1.232l.444.32.394.181c.066.033.123.058.189.091a5.69 5.69 0 00.994.345 50.787 50.787 0 0010.065 2.062l1.618 2.662a9.331 9.331 0 007.92 4.453h39.616a9.334 9.334 0 007.928-4.453l1.618-2.662a50.771 50.771 0 0010.065-2.062 5.685 5.685 0 00.994-.345 2.692 2.692 0 00.263-.131 5.031 5.031 0 00.756-.46 5.544 5.544 0 001.207-1.233 5.625 5.625 0 00.748-1.446 5.775 5.775 0 00-1.179-5.745zm-22.4 13.607H30.186a4.349 4.349 0 01-3.713-2.087l-2.86-4.708c-8.922-.986-11.691-2.218-11.7-2.218a.822.822 0 01-.288-.066.4.4 0 00-.057-.033c-.025-.017-.049-.017-.066-.033a.8.8 0 01-.139-.147.47.47 0 01-.09-.181.842.842 0 01.189-.834c.509-.567 1-1.118 1.47-1.636 3.345 1.028 13.351 3.246 37.063 3.246 23.588 0 33.521-2.161 37.046-3.27.477.525.97 1.084 1.487 1.659a.831.831 0 01.2.838.91.91 0 01-.091.181.616.616 0 01-.147.147c-.017.017-.041.017-.058.033a.205.205 0 00-.057.033.822.822 0 01-.3.066 15.68 15.68 0 01-2.5.739 77.533 77.533 0 01-9.193 1.478l-2.865 4.706a4.338 4.338 0 01-3.715 2.087zm14.769-14.686c-4.165 1.011-14.188 2.7-34.576 2.7-17.816 0-27.716-1.289-32.706-2.289l-.058-.011h-.008a40.33 40.33 0 01-1.807-.413c.464-.5.88-.97 1.255-1.377.542-.6.978-1.084 1.306-1.438a38.725 38.725 0 019.827-24.6c.5-.558 1.019-1.1 1.544-1.618q.752-.752 1.553-1.454l.92 14.723.165 2.613v.008l.139 2.26a4.437 4.437 0 108.873 0l.025-.46.14-2.473 1.331-23.227c.55-.165 1.117-.321 1.676-.444s1.109-.238 1.668-.328a25.2 25.2 0 018.315 0 27.684 27.684 0 013.336.764l1.33 23.233.14 2.473.024.46a4.437 4.437 0 108.873 0l.14-2.26.164-2.612.576-9.146.368-5.579c.521.464 1.042.943 1.538 1.447q.8.776 1.553 1.627a38.675 38.675 0 019.826 24.59c.32.353.764.838 1.306 1.438.315.351.674.749 1.061 1.173.061.074.119.141.183.22z"/></g></g></svg>