<svg xmlns="http://www.w3.org/2000/svg" width="100" height="100"><defs><clipPath id="a"><path data-name="長方形 22850" transform="translate(367.181 2621.008)" fill="#eee" d="M0 0h100v100H0z"/></clipPath></defs><g data-name="マスクグループ 58" transform="translate(-367.181 -2621.008)" clip-path="url(#a)"><g fill="#50b4c8"><path data-name="パス 6722" d="M407.573 2646.804h21.406a4.588 4.588 0 004.588-4.59v-4.6a4.588 4.588 0 00-4.588-4.583h-5.8a4.922 4.922 0 00-9.807 0h-5.8a4.59 4.59 0 00-4.591 4.59v4.6a4.59 4.59 0 004.592 4.583zm10.703-15.573a2.249 2.249 0 11-2.251 2.248 2.248 2.248 0 012.251-2.248z"/><path data-name="パス 6723" d="M461.363 2655.245a.293.293 0 01.032.039.327.327 0 01.032.025z"/><path data-name="パス 6724" d="M461.395 2655.285a3.786 3.786 0 00-5.329.025l-3.373 3.375 5.3 5.3 3.373-3.373a3.789 3.789 0 00.029-5.327z"/><path data-name="パス 6725" d="M428.309 2695.227l11.5-11.495-6.87-6.862-11.5 11.5a1.772 1.772 0 000 2.5l4.364 4.363a1.768 1.768 0 002.506-.006z"/><path data-name="パス 6726" d="M417.896 2697.855l-1.592 1.595.917.919 1.595-1.593 6.834-2.238-5.516-5.515z"/><path data-name="パス 6727" d="M445.263 2645.253v15.477l5.4-5.4v-9.762a7.651 7.651 0 00-7.651-7.65h-6.743v4.294a7.3 7.3 0 01-.158 1.509h7.624a1.531 1.531 0 011.528 1.532z"/><path data-name="パス 6728" d="M445.263 2704.398a1.53 1.53 0 01-1.531 1.53h-50.915a1.53 1.53 0 01-1.528-1.53v-59.145a1.53 1.53 0 011.528-1.53h7.627a7.3 7.3 0 01-.161-1.509v-4.294h-6.744a7.648 7.648 0 00-7.648 7.648v60.267a7.648 7.648 0 007.648 7.649h49.47a7.651 7.651 0 007.654-7.649v-29.143l-5.4 5.4v22.306z"/><path data-name="パス 6729" d="M434.165 2675.641l6.865 6.864 16.749-16.752-6.866-6.86zm18.385-11.521a1.516 1.516 0 010 2.145l-8.149 8.15a1.517 1.517 0 11-2.145-2.145l8.152-8.15a1.515 1.515 0 012.142 0z"/><path data-name="パス 6730" d="M397.15 2658.804l5.419 5.422 1.971-1.971 5.421-5.421-1.971-1.967-5.421 5.416-3.447-3.45z"/><path data-name="パス 6731" d="M407.99 2669.032l-5.421 5.42-3.447-3.45-1.972 1.971 5.419 5.422 1.971-1.971 5.421-5.421z"/><path data-name="パス 6732" d="M399.121 2685.17l-1.972 1.971 5.42 5.421 1.971-1.971 5.421-5.421-1.971-1.97-5.421 5.42z"/></g></g></svg>